# xmcd CD database file
#
# Track frame offsets:
#	150
#	19917
#	42925
#	69441
#	85847
#	111969
#	131737
#	152378
#	164673
#	189364
#	216623
#	247239
#
# Disc length: 3891 seconds
#
# Revision: 0
# Processed by: cddbd v1.5.1PL0 Copyright (c) Steve Scherf et al.
# Submitted via: CDex 1.51
#
DISCID=ac0f310c
DTITLE=Mannish Boys - Blue Water
DYEAR=2004
DGENRE=Blues
TTITLE0=In my shoes
TTITLE1=The only one
TTITLE2=Oldman song
TTITLE3=Blue water
TTITLE4=By your side
TTITLE5=No frontier blues
TTITLE6=Bye bye blues
TTITLE7=What a man can do
TTITLE8=Hear this music
TTITLE9=Rainin' all the night
TTITLE10=So nice
TTITLE11=Sun gone shine
EXTD=YEAR: 2004
EXTT0=
EXTT1=
EXTT2=
EXTT3=
EXTT4=
EXTT5=
EXTT6=
EXTT7=
EXTT8=
EXTT9=
EXTT10=
EXTT11=
PLAYORDER=
